<mxfile host="65bd71144e">
    <diagram id="66OVH24U_hDjOuxRi_yk" name="페이지-1">
        <mxGraphModel dx="1967" dy="881" grid="1" gridSize="10" guides="1" tooltips="1" connect="1" arrows="1" fold="1" page="1" pageScale="1" pageWidth="827" pageHeight="1169" math="0" shadow="0">
            <root>
                <mxCell id="0"/>
                <mxCell id="1" parent="0"/>
                <mxCell id="3" value="Monolith 앱의 개발 배포 및 아키텍처" style="text;html=1;strokeColor=none;fillColor=none;align=center;verticalAlign=middle;whiteSpace=wrap;rounded=0;fontSize=40;fontFamily=빙그레 싸만코체 Bold;fontSource=https%3A%2F%2Fcdn.jsdelivr.net%2Fgh%2Fprojectnoonnu%2Fnoonfonts_20-10%401.0%2FBinggraeSamanco-Bold.woff;" vertex="1" parent="1">
                    <mxGeometry x="125" y="220" width="620" height="30" as="geometry"/>
                </mxCell>
                <mxCell id="4" value="" style="rounded=0;whiteSpace=wrap;html=1;fontFamily=빙그레 싸만코체 Bold;fontSource=https%3A%2F%2Fcdn.jsdelivr.net%2Fgh%2Fprojectnoonnu%2Fnoonfonts_20-10%401.0%2FBinggraeSamanco-Bold.woff;fontSize=40;strokeWidth=3;" vertex="1" parent="1">
                    <mxGeometry x="-20" y="270" width="840" height="530" as="geometry"/>
                </mxCell>
                <mxCell id="12" value="개발 및 배포" style="text;html=1;strokeColor=none;fillColor=none;align=center;verticalAlign=middle;whiteSpace=wrap;rounded=0;fontFamily=빙그레 싸만코체 Bold;fontSource=https%3A%2F%2Fcdn.jsdelivr.net%2Fgh%2Fprojectnoonnu%2Fnoonfonts_20-10%401.0%2FBinggraeSamanco-Bold.woff;fontSize=35;" vertex="1" parent="1">
                    <mxGeometry x="250" y="290" width="350" height="30" as="geometry"/>
                </mxCell>
                <mxCell id="13" value="" style="image;html=1;image=img/lib/clip_art/computers/iMac_128x128.png;fontFamily=빙그레 싸만코체 Bold;fontSource=https%3A%2F%2Fcdn.jsdelivr.net%2Fgh%2Fprojectnoonnu%2Fnoonfonts_20-10%401.0%2FBinggraeSamanco-Bold.woff;fontSize=40;strokeWidth=3;" vertex="1" parent="1">
                    <mxGeometry x="20" y="340" width="40" height="40" as="geometry"/>
                </mxCell>
                <mxCell id="14" value="" style="image;html=1;image=img/lib/clip_art/computers/iMac_128x128.png;fontFamily=빙그레 싸만코체 Bold;fontSource=https%3A%2F%2Fcdn.jsdelivr.net%2Fgh%2Fprojectnoonnu%2Fnoonfonts_20-10%401.0%2FBinggraeSamanco-Bold.woff;fontSize=40;strokeWidth=3;" vertex="1" parent="1">
                    <mxGeometry x="60" y="340" width="40" height="40" as="geometry"/>
                </mxCell>
                <mxCell id="15" value="" style="image;html=1;image=img/lib/clip_art/computers/iMac_128x128.png;fontFamily=빙그레 싸만코체 Bold;fontSource=https%3A%2F%2Fcdn.jsdelivr.net%2Fgh%2Fprojectnoonnu%2Fnoonfonts_20-10%401.0%2FBinggraeSamanco-Bold.woff;fontSize=40;strokeWidth=3;" vertex="1" parent="1">
                    <mxGeometry x="100" y="340" width="40" height="40" as="geometry"/>
                </mxCell>
                <mxCell id="16" value="" style="image;html=1;image=img/lib/clip_art/computers/iMac_128x128.png;fontFamily=빙그레 싸만코체 Bold;fontSource=https%3A%2F%2Fcdn.jsdelivr.net%2Fgh%2Fprojectnoonnu%2Fnoonfonts_20-10%401.0%2FBinggraeSamanco-Bold.woff;fontSize=40;strokeWidth=3;" vertex="1" parent="1">
                    <mxGeometry x="140" y="340" width="40" height="40" as="geometry"/>
                </mxCell>
                <mxCell id="17" value="" style="image;html=1;image=img/lib/clip_art/computers/iMac_128x128.png;fontFamily=빙그레 싸만코체 Bold;fontSource=https%3A%2F%2Fcdn.jsdelivr.net%2Fgh%2Fprojectnoonnu%2Fnoonfonts_20-10%401.0%2FBinggraeSamanco-Bold.woff;fontSize=40;strokeWidth=3;" vertex="1" parent="1">
                    <mxGeometry x="20" y="390" width="40" height="40" as="geometry"/>
                </mxCell>
                <mxCell id="18" value="" style="image;html=1;image=img/lib/clip_art/computers/iMac_128x128.png;fontFamily=빙그레 싸만코체 Bold;fontSource=https%3A%2F%2Fcdn.jsdelivr.net%2Fgh%2Fprojectnoonnu%2Fnoonfonts_20-10%401.0%2FBinggraeSamanco-Bold.woff;fontSize=40;strokeWidth=3;" vertex="1" parent="1">
                    <mxGeometry x="60" y="390" width="40" height="40" as="geometry"/>
                </mxCell>
                <mxCell id="19" value="" style="image;html=1;image=img/lib/clip_art/computers/iMac_128x128.png;fontFamily=빙그레 싸만코체 Bold;fontSource=https%3A%2F%2Fcdn.jsdelivr.net%2Fgh%2Fprojectnoonnu%2Fnoonfonts_20-10%401.0%2FBinggraeSamanco-Bold.woff;fontSize=40;strokeWidth=3;" vertex="1" parent="1">
                    <mxGeometry x="100" y="390" width="40" height="40" as="geometry"/>
                </mxCell>
                <mxCell id="20" value="" style="image;html=1;image=img/lib/clip_art/computers/iMac_128x128.png;fontFamily=빙그레 싸만코체 Bold;fontSource=https%3A%2F%2Fcdn.jsdelivr.net%2Fgh%2Fprojectnoonnu%2Fnoonfonts_20-10%401.0%2FBinggraeSamanco-Bold.woff;fontSize=40;strokeWidth=3;" vertex="1" parent="1">
                    <mxGeometry x="140" y="390" width="40" height="40" as="geometry"/>
                </mxCell>
                <mxCell id="21" value="" style="image;html=1;image=img/lib/clip_art/computers/iMac_128x128.png;fontFamily=빙그레 싸만코체 Bold;fontSource=https%3A%2F%2Fcdn.jsdelivr.net%2Fgh%2Fprojectnoonnu%2Fnoonfonts_20-10%401.0%2FBinggraeSamanco-Bold.woff;fontSize=40;strokeWidth=3;" vertex="1" parent="1">
                    <mxGeometry x="20" y="440" width="40" height="40" as="geometry"/>
                </mxCell>
                <mxCell id="22" value="" style="image;html=1;image=img/lib/clip_art/computers/iMac_128x128.png;fontFamily=빙그레 싸만코체 Bold;fontSource=https%3A%2F%2Fcdn.jsdelivr.net%2Fgh%2Fprojectnoonnu%2Fnoonfonts_20-10%401.0%2FBinggraeSamanco-Bold.woff;fontSize=40;strokeWidth=3;" vertex="1" parent="1">
                    <mxGeometry x="60" y="440" width="40" height="40" as="geometry"/>
                </mxCell>
                <mxCell id="23" value="" style="image;html=1;image=img/lib/clip_art/computers/iMac_128x128.png;fontFamily=빙그레 싸만코체 Bold;fontSource=https%3A%2F%2Fcdn.jsdelivr.net%2Fgh%2Fprojectnoonnu%2Fnoonfonts_20-10%401.0%2FBinggraeSamanco-Bold.woff;fontSize=40;strokeWidth=3;" vertex="1" parent="1">
                    <mxGeometry x="100" y="440" width="40" height="40" as="geometry"/>
                </mxCell>
                <mxCell id="24" value="" style="image;html=1;image=img/lib/clip_art/computers/iMac_128x128.png;fontFamily=빙그레 싸만코체 Bold;fontSource=https%3A%2F%2Fcdn.jsdelivr.net%2Fgh%2Fprojectnoonnu%2Fnoonfonts_20-10%401.0%2FBinggraeSamanco-Bold.woff;fontSize=40;strokeWidth=3;" vertex="1" parent="1">
                    <mxGeometry x="140" y="440" width="40" height="40" as="geometry"/>
                </mxCell>
                <mxCell id="25" value="개발자" style="text;html=1;strokeColor=none;fillColor=none;align=center;verticalAlign=middle;whiteSpace=wrap;rounded=0;fontFamily=빙그레 싸만코체 Bold;fontSource=https%3A%2F%2Fcdn.jsdelivr.net%2Fgh%2Fprojectnoonnu%2Fnoonfonts_20-10%401.0%2FBinggraeSamanco-Bold.woff;fontSize=35;" vertex="1" parent="1">
                    <mxGeometry x="20" y="290" width="160" height="30" as="geometry"/>
                </mxCell>
                <mxCell id="26" value="" style="rounded=0;whiteSpace=wrap;html=1;fontFamily=빙그레 싸만코체 Bold;fontSource=https%3A%2F%2Fcdn.jsdelivr.net%2Fgh%2Fprojectnoonnu%2Fnoonfonts_20-10%401.0%2FBinggraeSamanco-Bold.woff;fontSize=40;strokeWidth=3;fillColor=#f5f5f5;fontColor=#333333;strokeColor=#666666;sketch=1;" vertex="1" parent="1">
                    <mxGeometry x="660" y="322.5" width="37" height="30" as="geometry"/>
                </mxCell>
                <mxCell id="27" value="" style="rounded=0;whiteSpace=wrap;html=1;fontFamily=빙그레 싸만코체 Bold;fontSource=https%3A%2F%2Fcdn.jsdelivr.net%2Fgh%2Fprojectnoonnu%2Fnoonfonts_20-10%401.0%2FBinggraeSamanco-Bold.woff;fontSize=40;strokeWidth=3;sketch=1;fillColor=#dae8fc;strokeColor=#6c8ebf;" vertex="1" parent="1">
                    <mxGeometry x="700" y="322.5" width="100" height="30" as="geometry"/>
                </mxCell>
                <mxCell id="9" value="" style="shape=offPageConnector;whiteSpace=wrap;html=1;fontFamily=빙그레 싸만코체 Bold;fontSource=https%3A%2F%2Fcdn.jsdelivr.net%2Fgh%2Fprojectnoonnu%2Fnoonfonts_20-10%401.0%2FBinggraeSamanco-Bold.woff;fontSize=40;strokeWidth=3;rotation=-90;size=0.12962962962962962;fillColor=#fa6800;fontColor=#FFFFFF;strokeColor=#C73500;" vertex="1" parent="1">
                    <mxGeometry x="270" y="322.5" width="100" height="135" as="geometry"/>
                </mxCell>
                <mxCell id="8" value="" style="group;fontColor=#FFFFFF;" vertex="1" connectable="0" parent="1">
                    <mxGeometry x="250" y="340" width="370" height="117.5" as="geometry"/>
                </mxCell>
                <mxCell id="6" value="test" style="shape=step;perimeter=stepPerimeter;whiteSpace=wrap;html=1;fixedSize=1;fontFamily=빙그레 싸만코체 Bold;fontSource=https%3A%2F%2Fcdn.jsdelivr.net%2Fgh%2Fprojectnoonnu%2Fnoonfonts_20-10%401.0%2FBinggraeSamanco-Bold.woff;fontSize=40;strokeWidth=3;fillColor=#fa6800;fontColor=#FFFFFF;strokeColor=#C73500;" vertex="1" parent="8">
                    <mxGeometry x="115.62499999999999" width="138.75" height="100" as="geometry"/>
                </mxCell>
                <mxCell id="7" value="&amp;nbsp;release" style="shape=step;perimeter=stepPerimeter;whiteSpace=wrap;html=1;fixedSize=1;fontFamily=빙그레 싸만코체 Bold;fontSource=https%3A%2F%2Fcdn.jsdelivr.net%2Fgh%2Fprojectnoonnu%2Fnoonfonts_20-10%401.0%2FBinggraeSamanco-Bold.woff;fontSize=40;strokeWidth=3;fillColor=#fa6800;fontColor=#FFFFFF;strokeColor=#C73500;" vertex="1" parent="8">
                    <mxGeometry x="231.24999999999997" width="138.75" height="100" as="geometry"/>
                </mxCell>
                <mxCell id="10" value="build" style="text;html=1;strokeColor=none;fillColor=#fa6800;align=center;verticalAlign=middle;whiteSpace=wrap;rounded=0;fontFamily=빙그레 싸만코체 Bold;fontSource=https%3A%2F%2Fcdn.jsdelivr.net%2Fgh%2Fprojectnoonnu%2Fnoonfonts_20-10%401.0%2FBinggraeSamanco-Bold.woff;fontSize=40;fontColor=#FFFFFF;" vertex="1" parent="8">
                    <mxGeometry x="40" y="35" width="60" height="30" as="geometry"/>
                </mxCell>
                <mxCell id="30" value="" style="rounded=0;whiteSpace=wrap;html=1;fontFamily=빙그레 싸만코체 Bold;fontSource=https%3A%2F%2Fcdn.jsdelivr.net%2Fgh%2Fprojectnoonnu%2Fnoonfonts_20-10%401.0%2FBinggraeSamanco-Bold.woff;fontSize=40;strokeWidth=3;sketch=1;fillColor=#fff2cc;strokeColor=#d6b656;" vertex="1" parent="1">
                    <mxGeometry x="660" y="357.5" width="57" height="30" as="geometry"/>
                </mxCell>
                <mxCell id="31" value="" style="rounded=0;whiteSpace=wrap;html=1;fontFamily=빙그레 싸만코체 Bold;fontSource=https%3A%2F%2Fcdn.jsdelivr.net%2Fgh%2Fprojectnoonnu%2Fnoonfonts_20-10%401.0%2FBinggraeSamanco-Bold.woff;fontSize=40;strokeWidth=3;sketch=1;fillColor=#d5e8d4;strokeColor=#82b366;" vertex="1" parent="1">
                    <mxGeometry x="720" y="357.5" width="80" height="30" as="geometry"/>
                </mxCell>
                <mxCell id="32" value="" style="rounded=0;whiteSpace=wrap;html=1;fontFamily=빙그레 싸만코체 Bold;fontSource=https%3A%2F%2Fcdn.jsdelivr.net%2Fgh%2Fprojectnoonnu%2Fnoonfonts_20-10%401.0%2FBinggraeSamanco-Bold.woff;fontSize=40;strokeWidth=3;sketch=1;fillColor=#d5e8d4;strokeColor=#82b366;" vertex="1" parent="1">
                    <mxGeometry x="660" y="390.5" width="40" height="111" as="geometry"/>
                </mxCell>
                <mxCell id="34" value="" style="rounded=0;whiteSpace=wrap;html=1;fontFamily=빙그레 싸만코체 Bold;fontSource=https%3A%2F%2Fcdn.jsdelivr.net%2Fgh%2Fprojectnoonnu%2Fnoonfonts_20-10%401.0%2FBinggraeSamanco-Bold.woff;fontSize=40;strokeWidth=3;sketch=1;fillColor=#dae8fc;strokeColor=#6c8ebf;" vertex="1" parent="1">
                    <mxGeometry x="703" y="390.5" width="40" height="40" as="geometry"/>
                </mxCell>
                <mxCell id="35" value="" style="rounded=0;whiteSpace=wrap;html=1;fontFamily=빙그레 싸만코체 Bold;fontSource=https%3A%2F%2Fcdn.jsdelivr.net%2Fgh%2Fprojectnoonnu%2Fnoonfonts_20-10%401.0%2FBinggraeSamanco-Bold.woff;fontSize=40;strokeWidth=3;sketch=1;fillColor=#f5f5f5;strokeColor=#666666;fontColor=#333333;" vertex="1" parent="1">
                    <mxGeometry x="703" y="434.5" width="97" height="30" as="geometry"/>
                </mxCell>
                <mxCell id="36" value="" style="rounded=0;whiteSpace=wrap;html=1;fontFamily=빙그레 싸만코체 Bold;fontSource=https%3A%2F%2Fcdn.jsdelivr.net%2Fgh%2Fprojectnoonnu%2Fnoonfonts_20-10%401.0%2FBinggraeSamanco-Bold.woff;fontSize=40;strokeWidth=3;sketch=1;fillColor=#f8cecc;strokeColor=#b85450;" vertex="1" parent="1">
                    <mxGeometry x="702.5" y="469.5" width="97" height="31" as="geometry"/>
                </mxCell>
                <mxCell id="37" value="" style="rounded=0;whiteSpace=wrap;html=1;fontFamily=빙그레 싸만코체 Bold;fontSource=https%3A%2F%2Fcdn.jsdelivr.net%2Fgh%2Fprojectnoonnu%2Fnoonfonts_20-10%401.0%2FBinggraeSamanco-Bold.woff;fontSize=40;strokeWidth=3;sketch=1;fillColor=#f8cecc;strokeColor=#b85450;" vertex="1" parent="1">
                    <mxGeometry x="745" y="390.5" width="55" height="40" as="geometry"/>
                </mxCell>
                <mxCell id="38" value="모놀리식 앱" style="text;html=1;strokeColor=none;fillColor=none;align=center;verticalAlign=middle;whiteSpace=wrap;rounded=0;fontFamily=빙그레 싸만코체 Bold;fontSource=https%3A%2F%2Fcdn.jsdelivr.net%2Fgh%2Fprojectnoonnu%2Fnoonfonts_20-10%401.0%2FBinggraeSamanco-Bold.woff;fontSize=35;" vertex="1" parent="1">
                    <mxGeometry x="650" y="280" width="160" height="30" as="geometry"/>
                </mxCell>
                <mxCell id="92" value="" style="group" vertex="1" connectable="0" parent="1">
                    <mxGeometry x="250" y="480" width="90" height="80" as="geometry"/>
                </mxCell>
                <mxCell id="39" value="" style="rounded=1;whiteSpace=wrap;html=1;sketch=1;fontFamily=빙그레 싸만코체 Bold;fontSource=https%3A%2F%2Fcdn.jsdelivr.net%2Fgh%2Fprojectnoonnu%2Fnoonfonts_20-10%401.0%2FBinggraeSamanco-Bold.woff;fontSize=35;fontColor=#FFFFFF;strokeWidth=3;strokeColor=#0066CC;" vertex="1" parent="92">
                    <mxGeometry width="90" height="80" as="geometry"/>
                </mxCell>
                <mxCell id="40" value="" style="rounded=0;whiteSpace=wrap;html=1;sketch=1;fontFamily=빙그레 싸만코체 Bold;fontSource=https%3A%2F%2Fcdn.jsdelivr.net%2Fgh%2Fprojectnoonnu%2Fnoonfonts_20-10%401.0%2FBinggraeSamanco-Bold.woff;fontSize=35;fontColor=#ffffff;strokeWidth=3;fillColor=#0050ef;strokeColor=#001DBC;" vertex="1" parent="92">
                    <mxGeometry x="6.923076923076923" y="6.615384615384616" width="20.76923076923077" height="18.76923076923077" as="geometry"/>
                </mxCell>
                <mxCell id="41" value="" style="rounded=0;whiteSpace=wrap;html=1;sketch=0;fontFamily=빙그레 싸만코체 Bold;fontSource=https%3A%2F%2Fcdn.jsdelivr.net%2Fgh%2Fprojectnoonnu%2Fnoonfonts_20-10%401.0%2FBinggraeSamanco-Bold.woff;fontSize=35;fontColor=#FFFFFF;strokeWidth=3;strokeColor=#0066CC;" vertex="1" parent="92">
                    <mxGeometry x="34.61538461538461" y="6.615384615384616" width="20.76923076923077" height="18.76923076923077" as="geometry"/>
                </mxCell>
                <mxCell id="42" value="" style="rounded=0;whiteSpace=wrap;html=1;sketch=0;fontFamily=빙그레 싸만코체 Bold;fontSource=https%3A%2F%2Fcdn.jsdelivr.net%2Fgh%2Fprojectnoonnu%2Fnoonfonts_20-10%401.0%2FBinggraeSamanco-Bold.woff;fontSize=35;strokeWidth=3;fillColor=#0050ef;strokeColor=#001DBC;fontColor=#ffffff;" vertex="1" parent="92">
                    <mxGeometry x="62.30769230769231" y="6.615384615384616" width="20.76923076923077" height="18.76923076923077" as="geometry"/>
                </mxCell>
                <mxCell id="43" value="" style="rounded=0;whiteSpace=wrap;html=1;sketch=1;fontFamily=빙그레 싸만코체 Bold;fontSource=https%3A%2F%2Fcdn.jsdelivr.net%2Fgh%2Fprojectnoonnu%2Fnoonfonts_20-10%401.0%2FBinggraeSamanco-Bold.woff;fontSize=35;fontColor=#FFFFFF;strokeWidth=3;" vertex="1" parent="92">
                    <mxGeometry x="6.923076923076923" y="30.923076923076923" width="20.76923076923077" height="18.76923076923077" as="geometry"/>
                </mxCell>
                <mxCell id="44" value="" style="rounded=0;whiteSpace=wrap;html=1;sketch=1;fontFamily=빙그레 싸만코체 Bold;fontSource=https%3A%2F%2Fcdn.jsdelivr.net%2Fgh%2Fprojectnoonnu%2Fnoonfonts_20-10%401.0%2FBinggraeSamanco-Bold.woff;fontSize=35;fontColor=#FFFFFF;strokeWidth=3;" vertex="1" parent="92">
                    <mxGeometry x="34.61538461538461" y="30.923076923076923" width="20.76923076923077" height="18.76923076923077" as="geometry"/>
                </mxCell>
                <mxCell id="45" value="" style="rounded=0;whiteSpace=wrap;html=1;sketch=0;fontFamily=빙그레 싸만코체 Bold;fontSource=https%3A%2F%2Fcdn.jsdelivr.net%2Fgh%2Fprojectnoonnu%2Fnoonfonts_20-10%401.0%2FBinggraeSamanco-Bold.woff;fontSize=35;fontColor=#FFFFFF;strokeWidth=3;strokeColor=#0066CC;" vertex="1" parent="92">
                    <mxGeometry x="62.30769230769231" y="30.923076923076923" width="20.76923076923077" height="18.76923076923077" as="geometry"/>
                </mxCell>
                <mxCell id="46" value="" style="rounded=0;whiteSpace=wrap;html=1;sketch=1;fontFamily=빙그레 싸만코체 Bold;fontSource=https%3A%2F%2Fcdn.jsdelivr.net%2Fgh%2Fprojectnoonnu%2Fnoonfonts_20-10%401.0%2FBinggraeSamanco-Bold.woff;fontSize=35;fontColor=#FFFFFF;strokeWidth=3;" vertex="1" parent="92">
                    <mxGeometry x="6.923076923076923" y="54.61538461538462" width="20.76923076923077" height="18.76923076923077" as="geometry"/>
                </mxCell>
                <mxCell id="47" value="" style="rounded=0;whiteSpace=wrap;html=1;sketch=1;fontFamily=빙그레 싸만코체 Bold;fontSource=https%3A%2F%2Fcdn.jsdelivr.net%2Fgh%2Fprojectnoonnu%2Fnoonfonts_20-10%401.0%2FBinggraeSamanco-Bold.woff;fontSize=35;fontColor=#FFFFFF;strokeWidth=3;" vertex="1" parent="92">
                    <mxGeometry x="34.61538461538461" y="54.61538461538462" width="20.76923076923077" height="18.76923076923077" as="geometry"/>
                </mxCell>
                <mxCell id="48" value="" style="rounded=0;whiteSpace=wrap;html=1;sketch=0;fontFamily=빙그레 싸만코체 Bold;fontSource=https%3A%2F%2Fcdn.jsdelivr.net%2Fgh%2Fprojectnoonnu%2Fnoonfonts_20-10%401.0%2FBinggraeSamanco-Bold.woff;fontSize=35;strokeWidth=3;fillColor=#0050ef;strokeColor=#001DBC;fontColor=#ffffff;" vertex="1" parent="92">
                    <mxGeometry x="62.30769230769231" y="54.61538461538462" width="20.76923076923077" height="18.76923076923077" as="geometry"/>
                </mxCell>
                <mxCell id="49" value="" style="rounded=0;whiteSpace=wrap;html=1;sketch=0;fontFamily=빙그레 싸만코체 Bold;fontSource=https%3A%2F%2Fcdn.jsdelivr.net%2Fgh%2Fprojectnoonnu%2Fnoonfonts_20-10%401.0%2FBinggraeSamanco-Bold.woff;fontSize=35;strokeWidth=3;fillColor=#0050ef;strokeColor=#001DBC;fontColor=#ffffff;" vertex="1" parent="92">
                    <mxGeometry x="6.923076923076923" y="6.615384615384616" width="20.76923076923077" height="18.76923076923077" as="geometry"/>
                </mxCell>
                <mxCell id="50" value="" style="rounded=0;whiteSpace=wrap;html=1;sketch=0;fontFamily=빙그레 싸만코체 Bold;fontSource=https%3A%2F%2Fcdn.jsdelivr.net%2Fgh%2Fprojectnoonnu%2Fnoonfonts_20-10%401.0%2FBinggraeSamanco-Bold.woff;fontSize=35;strokeWidth=3;fillColor=#0050ef;strokeColor=#001DBC;fontColor=#ffffff;" vertex="1" parent="92">
                    <mxGeometry x="34.61538461538461" y="30.923076923076923" width="20.76923076923077" height="18.76923076923077" as="geometry"/>
                </mxCell>
                <mxCell id="51" value="" style="rounded=0;whiteSpace=wrap;html=1;sketch=0;fontFamily=빙그레 싸만코체 Bold;fontSource=https%3A%2F%2Fcdn.jsdelivr.net%2Fgh%2Fprojectnoonnu%2Fnoonfonts_20-10%401.0%2FBinggraeSamanco-Bold.woff;fontSize=35;strokeWidth=3;fillColor=#0050ef;strokeColor=#001DBC;fontColor=#ffffff;" vertex="1" parent="92">
                    <mxGeometry x="6.923076923076923" y="54.61538461538462" width="20.76923076923077" height="18.76923076923077" as="geometry"/>
                </mxCell>
                <mxCell id="52" value="" style="rounded=0;whiteSpace=wrap;html=1;sketch=1;fontFamily=빙그레 싸만코체 Bold;fontSource=https%3A%2F%2Fcdn.jsdelivr.net%2Fgh%2Fprojectnoonnu%2Fnoonfonts_20-10%401.0%2FBinggraeSamanco-Bold.woff;fontSize=35;fontColor=#FFFFFF;strokeWidth=3;" vertex="1" parent="92">
                    <mxGeometry x="6.923076923076923" y="30.923076923076923" width="20.76923076923077" height="18.76923076923077" as="geometry"/>
                </mxCell>
                <mxCell id="53" value="" style="rounded=0;whiteSpace=wrap;html=1;sketch=1;fontFamily=빙그레 싸만코체 Bold;fontSource=https%3A%2F%2Fcdn.jsdelivr.net%2Fgh%2Fprojectnoonnu%2Fnoonfonts_20-10%401.0%2FBinggraeSamanco-Bold.woff;fontSize=35;fontColor=#FFFFFF;strokeWidth=3;" vertex="1" parent="92">
                    <mxGeometry x="34.61538461538461" y="54.61538461538462" width="20.76923076923077" height="18.76923076923077" as="geometry"/>
                </mxCell>
                <mxCell id="54" value="" style="rounded=0;whiteSpace=wrap;html=1;sketch=0;fontFamily=빙그레 싸만코체 Bold;fontSource=https%3A%2F%2Fcdn.jsdelivr.net%2Fgh%2Fprojectnoonnu%2Fnoonfonts_20-10%401.0%2FBinggraeSamanco-Bold.woff;fontSize=35;fontColor=#FFFFFF;strokeWidth=3;strokeColor=#0066CC;" vertex="1" parent="92">
                    <mxGeometry x="6.923076923076923" y="30.923076923076923" width="20.76923076923077" height="18.76923076923077" as="geometry"/>
                </mxCell>
                <mxCell id="55" value="" style="rounded=0;whiteSpace=wrap;html=1;sketch=0;fontFamily=빙그레 싸만코체 Bold;fontSource=https%3A%2F%2Fcdn.jsdelivr.net%2Fgh%2Fprojectnoonnu%2Fnoonfonts_20-10%401.0%2FBinggraeSamanco-Bold.woff;fontSize=35;fontColor=#FFFFFF;strokeWidth=3;strokeColor=#0066CC;" vertex="1" parent="92">
                    <mxGeometry x="34.61538461538461" y="54.61538461538462" width="20.76923076923077" height="18.76923076923077" as="geometry"/>
                </mxCell>
                <mxCell id="93" value="" style="group" vertex="1" connectable="0" parent="1">
                    <mxGeometry x="530" y="480.5" width="80" height="79.5" as="geometry"/>
                </mxCell>
                <mxCell id="74" value="" style="rounded=1;whiteSpace=wrap;html=1;sketch=1;fontFamily=빙그레 싸만코체 Bold;fontSource=https%3A%2F%2Fcdn.jsdelivr.net%2Fgh%2Fprojectnoonnu%2Fnoonfonts_20-10%401.0%2FBinggraeSamanco-Bold.woff;fontSize=35;fontColor=#FFFFFF;strokeWidth=3;strokeColor=#CCCC00;" vertex="1" parent="93">
                    <mxGeometry width="80" height="79.5" as="geometry"/>
                </mxCell>
                <mxCell id="75" value="" style="rounded=0;whiteSpace=wrap;html=1;sketch=1;fontFamily=빙그레 싸만코체 Bold;fontSource=https%3A%2F%2Fcdn.jsdelivr.net%2Fgh%2Fprojectnoonnu%2Fnoonfonts_20-10%401.0%2FBinggraeSamanco-Bold.woff;fontSize=35;fontColor=#FFFFFF;strokeWidth=3;" vertex="1" parent="93">
                    <mxGeometry x="6.153846153846153" y="6.574038461538462" width="18.46153846153846" height="18.651923076923076" as="geometry"/>
                </mxCell>
                <mxCell id="76" value="" style="rounded=0;whiteSpace=wrap;html=1;sketch=0;fontFamily=빙그레 싸만코체 Bold;fontSource=https%3A%2F%2Fcdn.jsdelivr.net%2Fgh%2Fprojectnoonnu%2Fnoonfonts_20-10%401.0%2FBinggraeSamanco-Bold.woff;fontSize=35;fontColor=#FFFFFF;strokeWidth=3;strokeColor=#CCCC00;" vertex="1" parent="93">
                    <mxGeometry x="30.769230769230766" y="6.574038461538462" width="18.46153846153846" height="18.651923076923076" as="geometry"/>
                </mxCell>
                <mxCell id="77" value="" style="rounded=0;whiteSpace=wrap;html=1;sketch=0;fontFamily=빙그레 싸만코체 Bold;fontSource=https%3A%2F%2Fcdn.jsdelivr.net%2Fgh%2Fprojectnoonnu%2Fnoonfonts_20-10%401.0%2FBinggraeSamanco-Bold.woff;fontSize=35;strokeWidth=3;fillColor=#e3c800;strokeColor=#B09500;fontColor=#000000;" vertex="1" parent="93">
                    <mxGeometry x="55.38461538461538" y="6.574038461538462" width="18.46153846153846" height="18.651923076923076" as="geometry"/>
                </mxCell>
                <mxCell id="78" value="" style="rounded=0;whiteSpace=wrap;html=1;sketch=1;fontFamily=빙그레 싸만코체 Bold;fontSource=https%3A%2F%2Fcdn.jsdelivr.net%2Fgh%2Fprojectnoonnu%2Fnoonfonts_20-10%401.0%2FBinggraeSamanco-Bold.woff;fontSize=35;fontColor=#FFFFFF;strokeWidth=3;" vertex="1" parent="93">
                    <mxGeometry x="6.153846153846153" y="30.72980769230769" width="18.46153846153846" height="18.651923076923076" as="geometry"/>
                </mxCell>
                <mxCell id="79" value="" style="rounded=0;whiteSpace=wrap;html=1;sketch=1;fontFamily=빙그레 싸만코체 Bold;fontSource=https%3A%2F%2Fcdn.jsdelivr.net%2Fgh%2Fprojectnoonnu%2Fnoonfonts_20-10%401.0%2FBinggraeSamanco-Bold.woff;fontSize=35;fontColor=#FFFFFF;strokeWidth=3;" vertex="1" parent="93">
                    <mxGeometry x="30.769230769230766" y="30.72980769230769" width="18.46153846153846" height="18.651923076923076" as="geometry"/>
                </mxCell>
                <mxCell id="80" value="" style="rounded=0;whiteSpace=wrap;html=1;sketch=0;fontFamily=빙그레 싸만코체 Bold;fontSource=https%3A%2F%2Fcdn.jsdelivr.net%2Fgh%2Fprojectnoonnu%2Fnoonfonts_20-10%401.0%2FBinggraeSamanco-Bold.woff;fontSize=35;fontColor=#FFFFFF;strokeWidth=3;strokeColor=#CCCC00;" vertex="1" parent="93">
                    <mxGeometry x="55.38461538461538" y="30.72980769230769" width="18.46153846153846" height="18.651923076923076" as="geometry"/>
                </mxCell>
                <mxCell id="81" value="" style="rounded=0;whiteSpace=wrap;html=1;sketch=1;fontFamily=빙그레 싸만코체 Bold;fontSource=https%3A%2F%2Fcdn.jsdelivr.net%2Fgh%2Fprojectnoonnu%2Fnoonfonts_20-10%401.0%2FBinggraeSamanco-Bold.woff;fontSize=35;fontColor=#FFFFFF;strokeWidth=3;" vertex="1" parent="93">
                    <mxGeometry x="6.153846153846153" y="54.27403846153846" width="18.46153846153846" height="18.651923076923076" as="geometry"/>
                </mxCell>
                <mxCell id="82" value="" style="rounded=0;whiteSpace=wrap;html=1;sketch=1;fontFamily=빙그레 싸만코체 Bold;fontSource=https%3A%2F%2Fcdn.jsdelivr.net%2Fgh%2Fprojectnoonnu%2Fnoonfonts_20-10%401.0%2FBinggraeSamanco-Bold.woff;fontSize=35;fontColor=#FFFFFF;strokeWidth=3;" vertex="1" parent="93">
                    <mxGeometry x="30.769230769230766" y="54.27403846153846" width="18.46153846153846" height="18.651923076923076" as="geometry"/>
                </mxCell>
                <mxCell id="83" value="" style="rounded=0;whiteSpace=wrap;html=1;sketch=0;fontFamily=빙그레 싸만코체 Bold;fontSource=https%3A%2F%2Fcdn.jsdelivr.net%2Fgh%2Fprojectnoonnu%2Fnoonfonts_20-10%401.0%2FBinggraeSamanco-Bold.woff;fontSize=35;strokeWidth=3;fillColor=#e3c800;strokeColor=#B09500;fontColor=#000000;" vertex="1" parent="93">
                    <mxGeometry x="55.38461538461538" y="54.27403846153846" width="18.46153846153846" height="18.651923076923076" as="geometry"/>
                </mxCell>
                <mxCell id="84" value="" style="rounded=0;whiteSpace=wrap;html=1;sketch=0;fontFamily=빙그레 싸만코체 Bold;fontSource=https%3A%2F%2Fcdn.jsdelivr.net%2Fgh%2Fprojectnoonnu%2Fnoonfonts_20-10%401.0%2FBinggraeSamanco-Bold.woff;fontSize=35;strokeWidth=3;fillColor=#e3c800;strokeColor=#B09500;fontColor=#000000;" vertex="1" parent="93">
                    <mxGeometry x="6.153846153846153" y="6.574038461538462" width="18.46153846153846" height="18.651923076923076" as="geometry"/>
                </mxCell>
                <mxCell id="85" value="" style="rounded=0;whiteSpace=wrap;html=1;sketch=0;fontFamily=빙그레 싸만코체 Bold;fontSource=https%3A%2F%2Fcdn.jsdelivr.net%2Fgh%2Fprojectnoonnu%2Fnoonfonts_20-10%401.0%2FBinggraeSamanco-Bold.woff;fontSize=35;strokeWidth=3;fillColor=#e3c800;strokeColor=#B09500;fontColor=#000000;" vertex="1" parent="93">
                    <mxGeometry x="30.769230769230766" y="30.72980769230769" width="18.46153846153846" height="18.651923076923076" as="geometry"/>
                </mxCell>
                <mxCell id="86" value="" style="rounded=0;whiteSpace=wrap;html=1;sketch=0;fontFamily=빙그레 싸만코체 Bold;fontSource=https%3A%2F%2Fcdn.jsdelivr.net%2Fgh%2Fprojectnoonnu%2Fnoonfonts_20-10%401.0%2FBinggraeSamanco-Bold.woff;fontSize=35;strokeWidth=3;fillColor=#e3c800;strokeColor=#B09500;fontColor=#000000;" vertex="1" parent="93">
                    <mxGeometry x="6.153846153846153" y="54.27403846153846" width="18.46153846153846" height="18.651923076923076" as="geometry"/>
                </mxCell>
                <mxCell id="87" value="" style="rounded=0;whiteSpace=wrap;html=1;sketch=1;fontFamily=빙그레 싸만코체 Bold;fontSource=https%3A%2F%2Fcdn.jsdelivr.net%2Fgh%2Fprojectnoonnu%2Fnoonfonts_20-10%401.0%2FBinggraeSamanco-Bold.woff;fontSize=35;fontColor=#FFFFFF;strokeWidth=3;" vertex="1" parent="93">
                    <mxGeometry x="6.153846153846153" y="30.72980769230769" width="18.46153846153846" height="18.651923076923076" as="geometry"/>
                </mxCell>
                <mxCell id="88" value="" style="rounded=0;whiteSpace=wrap;html=1;sketch=1;fontFamily=빙그레 싸만코체 Bold;fontSource=https%3A%2F%2Fcdn.jsdelivr.net%2Fgh%2Fprojectnoonnu%2Fnoonfonts_20-10%401.0%2FBinggraeSamanco-Bold.woff;fontSize=35;fontColor=#FFFFFF;strokeWidth=3;" vertex="1" parent="93">
                    <mxGeometry x="30.769230769230766" y="54.27403846153846" width="18.46153846153846" height="18.651923076923076" as="geometry"/>
                </mxCell>
                <mxCell id="89" value="" style="rounded=0;whiteSpace=wrap;html=1;sketch=0;fontFamily=빙그레 싸만코체 Bold;fontSource=https%3A%2F%2Fcdn.jsdelivr.net%2Fgh%2Fprojectnoonnu%2Fnoonfonts_20-10%401.0%2FBinggraeSamanco-Bold.woff;fontSize=35;fontColor=#FFFFFF;strokeWidth=3;strokeColor=#CCCC00;" vertex="1" parent="93">
                    <mxGeometry x="6.153846153846153" y="30.72980769230769" width="18.46153846153846" height="18.651923076923076" as="geometry"/>
                </mxCell>
                <mxCell id="90" value="" style="rounded=0;whiteSpace=wrap;html=1;sketch=0;fontFamily=빙그레 싸만코체 Bold;fontSource=https%3A%2F%2Fcdn.jsdelivr.net%2Fgh%2Fprojectnoonnu%2Fnoonfonts_20-10%401.0%2FBinggraeSamanco-Bold.woff;fontSize=35;fontColor=#FFFFFF;strokeWidth=3;strokeColor=#CCCC00;" vertex="1" parent="93">
                    <mxGeometry x="30.769230769230766" y="54.27403846153846" width="18.46153846153846" height="18.651923076923076" as="geometry"/>
                </mxCell>
                <mxCell id="95" value="" style="shape=cylinder3;whiteSpace=wrap;html=1;boundedLbl=1;backgroundOutline=1;size=15;sketch=0;fontFamily=빙그레 싸만코체 Bold;fontSource=https%3A%2F%2Fcdn.jsdelivr.net%2Fgh%2Fprojectnoonnu%2Fnoonfonts_20-10%401.0%2FBinggraeSamanco-Bold.woff;fontSize=35;fontColor=#ffffff;strokeColor=#314354;strokeWidth=3;fillColor=#647687;" vertex="1" parent="1">
                    <mxGeometry x="390" y="620" width="105" height="110" as="geometry"/>
                </mxCell>
                <mxCell id="102" value="" style="group" vertex="1" connectable="0" parent="1">
                    <mxGeometry x="390" y="495" width="90" height="50" as="geometry"/>
                </mxCell>
                <mxCell id="96" value="" style="rounded=0;whiteSpace=wrap;html=1;sketch=0;fontFamily=빙그레 싸만코체 Bold;fontSource=https%3A%2F%2Fcdn.jsdelivr.net%2Fgh%2Fprojectnoonnu%2Fnoonfonts_20-10%401.0%2FBinggraeSamanco-Bold.woff;fontSize=35;fontColor=#FFFFFF;strokeColor=#000000;strokeWidth=3;" vertex="1" parent="102">
                    <mxGeometry width="90" height="50" as="geometry"/>
                </mxCell>
                <mxCell id="97" value="" style="rounded=0;whiteSpace=wrap;html=1;sketch=0;fontFamily=빙그레 싸만코체 Bold;fontSource=https%3A%2F%2Fcdn.jsdelivr.net%2Fgh%2Fprojectnoonnu%2Fnoonfonts_20-10%401.0%2FBinggraeSamanco-Bold.woff;fontSize=35;strokeWidth=3;fillColor=#0050ef;strokeColor=#001DBC;fontColor=#ffffff;" vertex="1" parent="102">
                    <mxGeometry x="10" y="10.620000000000005" width="20.77" height="29.38" as="geometry"/>
                </mxCell>
                <mxCell id="100" value="" style="rounded=0;whiteSpace=wrap;html=1;sketch=0;fontFamily=빙그레 싸만코체 Bold;fontSource=https%3A%2F%2Fcdn.jsdelivr.net%2Fgh%2Fprojectnoonnu%2Fnoonfonts_20-10%401.0%2FBinggraeSamanco-Bold.woff;fontSize=35;strokeWidth=3;fillColor=#e3c800;strokeColor=#B09500;fontColor=#000000;" vertex="1" parent="102">
                    <mxGeometry x="59.23000000000002" y="10.620000000000005" width="20.77" height="29.38" as="geometry"/>
                </mxCell>
                <mxCell id="101" value="" style="rounded=0;whiteSpace=wrap;html=1;sketch=0;fontFamily=빙그레 싸만코체 Bold;fontSource=https%3A%2F%2Fcdn.jsdelivr.net%2Fgh%2Fprojectnoonnu%2Fnoonfonts_20-10%401.0%2FBinggraeSamanco-Bold.woff;fontSize=35;strokeWidth=3;fillColor=#647687;strokeColor=#314354;fontColor=#ffffff;" vertex="1" parent="102">
                    <mxGeometry x="34.610000000000014" y="10.620000000000005" width="20.77" height="29.38" as="geometry"/>
                </mxCell>
                <mxCell id="103" value="" style="endArrow=classic;dashed=1;html=1;fontFamily=빙그레 싸만코체 Bold;fontSource=https%3A%2F%2Fcdn.jsdelivr.net%2Fgh%2Fprojectnoonnu%2Fnoonfonts_20-10%401.0%2FBinggraeSamanco-Bold.woff;fontSize=35;fontColor=#FFFFFF;strokeWidth=3;endFill=1;startArrow=classic;startFill=1;" edge="1" parent="1">
                    <mxGeometry width="50" height="50" relative="1" as="geometry">
                        <mxPoint x="310" y="580" as="sourcePoint"/>
                        <mxPoint x="370" y="640" as="targetPoint"/>
                    </mxGeometry>
                </mxCell>
                <mxCell id="104" value="" style="endArrow=classic;dashed=1;html=1;fontFamily=빙그레 싸만코체 Bold;fontSource=https%3A%2F%2Fcdn.jsdelivr.net%2Fgh%2Fprojectnoonnu%2Fnoonfonts_20-10%401.0%2FBinggraeSamanco-Bold.woff;fontSize=35;fontColor=#FFFFFF;strokeWidth=3;startArrow=classic;startFill=1;endFill=1;" edge="1" parent="1">
                    <mxGeometry width="50" height="50" relative="1" as="geometry">
                        <mxPoint x="570" y="580" as="sourcePoint"/>
                        <mxPoint x="510" y="638" as="targetPoint"/>
                    </mxGeometry>
                </mxCell>
                <mxCell id="105" value="Shared libraries" style="text;html=1;strokeColor=none;fillColor=none;align=center;verticalAlign=middle;whiteSpace=wrap;rounded=0;fontFamily=빙그레 싸만코체 Bold;fontSource=https%3A%2F%2Fcdn.jsdelivr.net%2Fgh%2Fprojectnoonnu%2Fnoonfonts_20-10%401.0%2FBinggraeSamanco-Bold.woff;fontSize=35;" vertex="1" parent="1">
                    <mxGeometry x="260" y="450.5" width="350" height="30" as="geometry"/>
                </mxCell>
                <mxCell id="106" value="" style="endArrow=classic;dashed=1;html=1;fontFamily=빙그레 싸만코체 Bold;fontSource=https%3A%2F%2Fcdn.jsdelivr.net%2Fgh%2Fprojectnoonnu%2Fnoonfonts_20-10%401.0%2FBinggraeSamanco-Bold.woff;fontSize=35;fontColor=#FFFFFF;strokeWidth=3;startArrow=none;startFill=0;endFill=1;" edge="1" parent="1">
                    <mxGeometry width="50" height="50" relative="1" as="geometry">
                        <mxPoint x="390" y="520" as="sourcePoint"/>
                        <mxPoint x="340" y="519.96" as="targetPoint"/>
                    </mxGeometry>
                </mxCell>
                <mxCell id="107" value="" style="endArrow=none;dashed=1;html=1;fontFamily=빙그레 싸만코체 Bold;fontSource=https%3A%2F%2Fcdn.jsdelivr.net%2Fgh%2Fprojectnoonnu%2Fnoonfonts_20-10%401.0%2FBinggraeSamanco-Bold.woff;fontSize=35;fontColor=#FFFFFF;strokeWidth=3;startArrow=classic;startFill=1;endFill=0;" edge="1" parent="1">
                    <mxGeometry width="50" height="50" relative="1" as="geometry">
                        <mxPoint x="530" y="519.75" as="sourcePoint"/>
                        <mxPoint x="480" y="519.71" as="targetPoint"/>
                    </mxGeometry>
                </mxCell>
                <mxCell id="113" value="" style="ellipse;whiteSpace=wrap;html=1;sketch=0;fontFamily=빙그레 싸만코체 Bold;fontSource=https%3A%2F%2Fcdn.jsdelivr.net%2Fgh%2Fprojectnoonnu%2Fnoonfonts_20-10%401.0%2FBinggraeSamanco-Bold.woff;fontSize=35;fontColor=#ffffff;strokeColor=#001DBC;strokeWidth=3;fillColor=none;" vertex="1" parent="1">
                    <mxGeometry x="400" y="660" width="54" height="50" as="geometry"/>
                </mxCell>
                <mxCell id="114" value="" style="ellipse;whiteSpace=wrap;html=1;sketch=0;fontFamily=빙그레 싸만코체 Bold;fontSource=https%3A%2F%2Fcdn.jsdelivr.net%2Fgh%2Fprojectnoonnu%2Fnoonfonts_20-10%401.0%2FBinggraeSamanco-Bold.woff;fontSize=35;fontColor=#000000;strokeColor=#B09500;strokeWidth=3;fillColor=none;" vertex="1" parent="1">
                    <mxGeometry x="434" y="660" width="56" height="50" as="geometry"/>
                </mxCell>
                <mxCell id="115" value="" style="whiteSpace=wrap;html=1;shape=mxgraph.basic.pointed_oval;sketch=0;fontFamily=빙그레 싸만코체 Bold;fontSource=https%3A%2F%2Fcdn.jsdelivr.net%2Fgh%2Fprojectnoonnu%2Fnoonfonts_20-10%401.0%2FBinggraeSamanco-Bold.woff;fontSize=35;fontColor=#FFFFFF;strokeColor=#99FF99;strokeWidth=3;fillColor=#99FF99;" vertex="1" parent="1">
                    <mxGeometry x="434.25" y="670" width="18.75" height="30" as="geometry"/>
                </mxCell>
                <mxCell id="120" value="Shared data" style="text;html=1;strokeColor=none;fillColor=none;align=center;verticalAlign=middle;whiteSpace=wrap;rounded=0;fontFamily=빙그레 싸만코체 Bold;fontSource=https%3A%2F%2Fcdn.jsdelivr.net%2Fgh%2Fprojectnoonnu%2Fnoonfonts_20-10%401.0%2FBinggraeSamanco-Bold.woff;fontSize=35;" vertex="1" parent="1">
                    <mxGeometry x="270" y="740" width="350" height="30" as="geometry"/>
                </mxCell>
                <mxCell id="122" value="" style="verticalLabelPosition=bottom;verticalAlign=top;html=1;shape=mxgraph.basic.patternFillRect;fillStyle=diag;step=5;fillStrokeWidth=0.2;fillStrokeColor=#dddddd;sketch=0;fontFamily=빙그레 싸만코체 Bold;fontSource=https%3A%2F%2Fcdn.jsdelivr.net%2Fgh%2Fprojectnoonnu%2Fnoonfonts_20-10%401.0%2FBinggraeSamanco-Bold.woff;fontSize=35;fontColor=#FFFFFF;strokeColor=none;strokeWidth=3;fillColor=#FFFFFF;" vertex="1" parent="1">
                    <mxGeometry x="-260" y="490.25" width="120" height="60" as="geometry"/>
                </mxCell>
                <mxCell id="123" value="" style="verticalLabelPosition=bottom;verticalAlign=top;html=1;shape=mxgraph.basic.patternFillRect;fillStyle=diag;step=5;fillStrokeWidth=0.2;fillStrokeColor=#dddddd;sketch=0;fontFamily=빙그레 싸만코체 Bold;fontSource=https%3A%2F%2Fcdn.jsdelivr.net%2Fgh%2Fprojectnoonnu%2Fnoonfonts_20-10%401.0%2FBinggraeSamanco-Bold.woff;fontSize=35;fontColor=#FFFFFF;strokeColor=none;strokeWidth=3;fillColor=#FFFFFF;" vertex="1" parent="1">
                    <mxGeometry x="354" y="80" width="120" height="60" as="geometry"/>
                </mxCell>
            </root>
        </mxGraphModel>
    </diagram>
</mxfile>